<?xml version="1.0" encoding="UTF-8"?>
<!DOCTYPE svg PUBLIC "-//W3C//DTD SVG 1.1//EN" "http://www.w3.org/Graphics/SVG/1.1/DTD/svg11.dtd">
<!-- Creator: CorelDRAW 2020 (64 Bit) -->
<svg xmlns="http://www.w3.org/2000/svg" xml:space="preserve" width="238.612mm" height="119.065mm" version="1.1" style="shape-rendering:geometricPrecision; text-rendering:geometricPrecision; image-rendering:optimizeQuality; fill-rule:evenodd; clip-rule:evenodd"
viewBox="0 0 23861.26 11906.52"
 xmlns:xlink="http://www.w3.org/1999/xlink"
 xmlns:xodm="http://www.corel.com/coreldraw/odm/2003">
 <defs>
  <style type="text/css">
   <![CDATA[
    .fil2 {fill:#3F3D56;fill-rule:nonzero}
    .fil1 {fill:#6C63FF;fill-rule:nonzero}
    .fil3 {fill:#CCCCCC;fill-rule:nonzero}
    .fil0 {fill:#E6E6E6;fill-rule:nonzero}
   ]]>
  </style>
 </defs>
 <g id="Camada_x0020_1">
  <metadata id="CorelCorpID_0Corel-Layer"/>
  <path class="fil0" d="M16505.97 0.04c-0.51,-0.04 -1.04,-0.04 -1.54,-0.04 -660.07,0 -1282.59,309.6 -1680.37,836.19 -172.92,-74.23 -359.67,-112.83 -548.1,-112.83 -765.75,0 -1386.58,620.66 -1386.76,1386.43l5726.56 0.04c-0.02,-0.04 -0.02,-0.04 -0.02,-0.04 0,-1165 -944.77,-2109.77 -2109.75,-2109.77 0,0 0,0 0,0l-0.02 0.02z"/>
  <circle class="fil1" cx="3960.71" cy="4860.74" r="3397.54"/>
  <path class="fil2" d="M23861.24 11862.6c-123.65,29 -250.74,43.88 -377.83,43.88 -0.8,0 -1.6,0 -2.42,0l-22682.2 0.04c-0.76,-0.02 -1.97,-0.02 -2.77,-0.02 -278.28,0 -552.53,-70.77 -796.02,-205.08l60.44 -86.8 2530.69 -3644.15 3750.05 -5398.76 54.78 -79.04 590.03 -849.43c80.54,-116.06 212.78,-185.27 353.99,-185.27 141.19,0 273.43,69.21 353.91,185.23l1960.28 2821.58 0 0.51 1153.23 1660.58 2752.88 3962.93 4175.27 -5959.88c80.59,-115.27 212.6,-184.05 353.36,-184.05 140.76,0 272.77,68.78 353.44,184.09l2678.44 3822.88 153.98 219.6 2586.47 3691.16 -0.02 0z"/>
  <path class="fil3" d="M11996.75 3522.88c-0.64,-0.04 -1.29,-0.04 -1.91,-0.04 -814.36,0 -1582.4,381.95 -2073.18,1031.66 -213.34,-91.58 -443.73,-139.21 -676.21,-139.21 -944.77,0 -1710.72,765.75 -1710.93,1710.5l7065.2 0.04c0.02,-0.04 0.02,-0.04 0.02,-0.04 0,-1437.32 -1165.63,-2602.95 -2602.97,-2602.95 0,0 0,0 0,0l-0.02 0.04 0.01 0z"/>
 </g>
</svg>
